<svg width="58" height="47" viewBox="0 0 58 47" fill="none" xmlns="http://www.w3.org/2000/svg">
  <mask id="mask0_1_36241" style="mask-type:luminance" maskUnits="userSpaceOnUse" x="0" y="0" width="58" height="47">
    <path d="M57.7135 0H0V46.5578H57.7135V0Z" fill="white"/>
  </mask>
  <g mask="url(#mask0_1_36241)">
    <path d="M24.2848 44.0886L17.3125 33.4626C17.4592 33.4341 17.606 33.4115 17.7522 33.372C18.2033 33.2934 18.643 33.1917 19.0826 33.0735C23.4653 31.946 27.4352 29.5915 30.5263 26.2864C30.9808 26.025 31.3671 25.6599 31.6535 25.2208L32.9109 23.3044C33.0237 23.1406 33.1307 22.9771 33.2318 22.8136L37.037 17.019C37.4375 16.417 37.6301 15.7005 37.5853 14.9788C37.5406 14.2571 37.261 13.57 36.7892 13.022C36.687 12.8991 36.5757 12.7841 36.4562 12.6779C36.1734 12.4197 35.8445 12.2171 35.4867 12.0806C35.9549 12.1355 36.4172 12.2048 36.8733 12.2894C41.0186 13.0501 44.8876 14.8981 48.0844 17.6445C48.6648 18.1391 49.2232 18.665 49.753 19.2173L35.5076 40.9148L35.5021 40.9203C35.5021 40.9258 35.4966 40.9319 35.4905 40.9374V40.9428C35.4838 40.9516 35.4782 40.9612 35.4741 40.9714L33.4275 44.0886C32.93 44.8469 32.2518 45.4696 31.4537 45.9004C30.6558 46.3313 29.7631 46.5569 28.8561 46.5569C27.9492 46.5569 27.0566 46.3313 26.2586 45.9004C25.4606 45.4696 24.7823 44.8469 24.2848 44.0886Z" fill="url(#paint0_linear_1_36241)"/>
    <path d="M17.3128 33.4627L11.4785 24.5729L9.05439 20.8748L9.00932 20.8127C9.00619 20.8096 9.00427 20.8055 9.00383 20.8012C8.99778 20.7957 8.99229 20.7902 8.99229 20.7847L8.99201 20.7824L8.99086 20.7805L8.98899 20.7791L8.98679 20.7786C8.98679 20.7731 8.9813 20.7677 8.9813 20.7616L8.97525 20.7561L3.55154 12.5032C3.54679 12.4985 3.54289 12.4929 3.53999 12.4868C3.5345 12.4807 3.5345 12.4807 3.5345 12.4752L0.907566 8.4727C0.365415 7.64791 0.0565746 6.69182 0.0138049 5.70573C-0.028965 4.71966 0.195928 3.7404 0.664629 2.87179C1.13333 2.00317 1.82837 1.27759 2.67605 0.77199C3.52372 0.2664 4.49242 -0.000360518 5.47943 3.65678e-07H16.5505C16.5395 0.0549574 16.534 0.118704 16.528 0.17476C16.3809 1.24138 16.3074 2.31688 16.3081 3.3936C16.3081 3.81677 16.3197 4.23388 16.3422 4.65101C16.3422 4.662 16.3477 4.66749 16.3477 4.67903C16.605 9.57415 18.3692 14.27 21.3988 18.1237C21.4028 18.1324 21.4086 18.1401 21.4158 18.1462L26.0608 25.2208C26.4285 25.7841 26.9581 26.2229 27.5799 26.4795C28.2016 26.7361 28.8866 26.7985 29.5445 26.6585C29.8889 26.5862 30.2198 26.4607 30.5255 26.2864C27.4343 29.5915 23.4644 31.946 19.0818 33.0736C18.6422 33.1918 18.2025 33.2934 17.7513 33.372C17.6051 33.4116 17.4584 33.4341 17.3128 33.4627Z" fill="url(#paint1_linear_1_36241)"/>
    <path d="M20.6769 17.019L21.3985 18.1237C18.369 14.27 16.6047 9.57415 16.3474 4.67903C16.3474 4.66749 16.3419 4.662 16.3419 4.65101C16.3194 4.23388 16.3079 3.81677 16.3079 3.3936C16.3072 2.31688 16.3806 1.24138 16.5277 0.17476C16.5337 0.119803 16.5392 0.0566061 16.5502 3.65678e-07H52.2337C53.2207 -0.000360518 54.1895 0.2664 55.0372 0.77199C55.8846 1.27759 56.5798 2.00317 57.0486 2.87179C57.5174 3.7404 57.7422 4.71966 57.6993 5.70573C57.6564 6.69182 57.3476 7.64791 56.8057 8.4727L51.6138 16.3942C51.604 16.4103 51.5925 16.4253 51.5798 16.4392H51.5742C51.57 16.4494 51.5642 16.4588 51.5572 16.4673V16.4733L51.5517 16.4788C51.5487 16.485 51.5448 16.4907 51.5402 16.4959L49.7535 19.2184C49.2237 18.6661 48.6654 18.1418 48.085 17.6456C44.8881 14.8992 41.0192 13.0513 36.8738 12.2906C36.4177 12.2059 35.9555 12.1383 35.4873 12.0817C35.0923 11.9188 34.6687 11.8364 34.2414 11.8394H23.4731C23.0163 11.8394 22.5643 11.9328 22.1449 12.114C21.7255 12.2952 21.3476 12.5602 21.0345 12.8929C20.7214 13.2255 20.4796 13.6187 20.3241 14.0482C20.1685 14.4778 20.1025 14.9346 20.1301 15.3907C20.1311 15.4305 20.1347 15.4701 20.1411 15.5094C20.1889 16.0499 20.3732 16.5694 20.6769 17.019Z" fill="url(#paint2_linear_1_36241)"/>
    <g style="mix-blend-mode:multiply" opacity="0.2">
      <path d="M19.0198 33.0961C19.0423 33.0906 19.0593 33.079 19.0819 33.0735C19.5946 32.8932 20.1079 32.7069 20.6097 32.5096C21.134 32.3013 21.6467 32.0755 22.154 31.8386C22.6557 31.5908 23.1575 31.344 23.6482 31.0692C24.139 30.7944 24.6177 30.5169 25.0909 30.224C25.5591 29.9195 26.0158 29.6036 26.4648 29.2826C26.9138 28.9617 27.3556 28.6115 27.7837 28.262C28.2119 27.9125 28.6185 27.535 29.0296 27.1574C29.2044 26.9926 29.3737 26.8243 29.5429 26.6556C29.8873 26.5834 30.2182 26.4579 30.5239 26.2836C30.9784 26.0222 31.3646 25.6571 31.6511 25.2179L32.9085 23.3016C33.0213 23.1378 33.1283 22.9743 33.2294 22.8109L37.0346 17.0162C37.4351 16.4142 37.6276 15.6977 37.5829 14.976C37.5382 14.2544 37.2585 13.5671 36.7868 13.0192C37.2609 13.4966 37.5759 14.109 37.6886 14.7723C37.8139 15.4576 37.7233 16.1648 37.4292 16.7964C37.2825 17.1064 37.0995 17.3882 36.9346 17.6641L36.4329 18.5045L35.4013 20.1729C34.7136 21.283 34.0166 22.3879 33.3102 23.4874L32.2446 25.1333C32.0651 25.4373 31.8556 25.7225 31.6192 25.9846C31.3852 26.2353 31.1153 26.45 30.8185 26.6215C30.4294 27.0222 30.0348 27.4168 29.6232 27.7944C29.195 28.1835 28.7554 28.5494 28.2987 28.9044C27.842 29.2595 27.3798 29.5871 26.9061 29.908C26.4214 30.224 25.9312 30.5169 25.4294 30.7988C24.9276 31.0807 24.4204 31.3341 23.8961 31.5683C23.3718 31.8024 22.8475 32.0194 22.3117 32.2112C21.7759 32.403 21.2296 32.5662 20.6828 32.7185L19.854 32.9267L19.0198 33.0961Z" fill="black"/>
    </g>
    <g style="mix-blend-mode:multiply" opacity="0.2">
      <path d="M48.1301 17.6785C48.1131 17.667 48.1015 17.656 48.085 17.6444C47.1573 16.9686 46.1896 16.3494 45.1872 15.7902C44.6925 15.4967 44.1726 15.2373 43.6539 14.984C43.1351 14.7306 42.6053 14.4932 42.0755 14.2734C41.5402 14.0651 41.0044 13.8508 40.4576 13.6689C39.9107 13.487 39.3639 13.3303 38.8116 13.1781C38.2593 13.0259 37.6954 12.8962 37.1316 12.7934C36.9964 12.7648 36.8387 12.7313 36.7205 12.7143L36.4551 12.6747C36.1723 12.4165 35.8434 12.2138 35.4856 12.0773C35.0906 11.9144 34.667 11.832 34.2397 11.835H23.4731C24.4761 11.7393 25.4796 11.6943 26.4886 11.6261C27.4921 11.5756 28.4957 11.525 29.4992 11.497C30.5027 11.4689 31.5056 11.442 32.5092 11.4233L34.0144 11.4008C34.2874 11.3896 34.561 11.4029 34.8316 11.4404C35.0959 11.4796 35.3549 11.5475 35.6043 11.6432L36.4215 11.7619L36.8557 11.8295C37.0244 11.852 37.1541 11.8844 37.3063 11.9196C37.8872 12.0295 38.4676 12.179 39.043 12.3367C39.6184 12.4944 40.1756 12.6972 40.734 12.9061C41.2924 13.1149 41.8386 13.3457 42.3745 13.5996C42.9042 13.8645 43.434 14.1349 43.9473 14.4339C44.4606 14.7328 44.9563 15.0538 45.4356 15.3923C45.9148 15.7309 46.3825 16.1024 46.8331 16.4799C47.2855 16.8572 47.7184 17.2573 48.1301 17.6785Z" fill="black"/>
    </g>
    <g style="mix-blend-mode:multiply" opacity="0.2">
      <path d="M26.0608 25.2208C25.1754 24.1161 24.3302 22.9829 23.4959 21.8442C22.6842 20.7226 21.8945 19.591 21.1169 18.4452L21.0663 18.3776C20.2859 17.4133 19.5873 16.3855 18.9779 15.3049C18.685 14.7641 18.3976 14.2113 18.1437 13.648C17.8898 13.0847 17.6645 12.4977 17.4562 11.9174C17.36 11.6239 17.2474 11.3365 17.1688 11.0381C17.0902 10.7396 16.9995 10.4407 16.9264 10.1423C16.7714 9.54456 16.6473 8.93921 16.5543 8.32869C16.5148 8.02423 16.4582 7.71977 16.4356 7.41531C16.4021 7.10535 16.3735 6.80089 16.357 6.49093C16.3203 5.87904 16.3146 5.26568 16.34 4.6532C16.34 4.66419 16.3455 4.66969 16.3455 4.68123C16.5318 5.88201 16.7626 7.06578 17.0599 8.22153C17.2248 8.80187 17.3897 9.38276 17.5787 9.95212C17.759 10.527 17.9788 11.0853 18.1932 11.6431C18.6482 12.7504 19.1696 13.8291 19.7545 14.8735C19.8787 15.0873 20.0084 15.2961 20.1392 15.5105C20.1868 16.0513 20.3712 16.5712 20.675 17.0212L21.3966 18.1259C21.4006 18.1345 21.4064 18.1422 21.4136 18.1484L26.0608 25.2208Z" fill="black"/>
    </g>
    <g style="mix-blend-mode:screen" opacity="0.4">
      <path d="M3.5345 12.4752L0.907566 8.4727C0.365415 7.64791 0.0565746 6.69182 0.0138049 5.70573C-0.028965 4.71966 0.195928 3.7404 0.664629 2.87179C1.13333 2.00317 1.82837 1.27759 2.67604 0.77199C3.52372 0.2664 4.49242 -0.000360518 5.47943 3.65678e-07H19.4011C19.4011 3.65678e-07 18.9274 0.0395701 18.0931 0.0901304C17.659 0.107167 17.1347 0.141236 16.5258 0.17476C15.9564 0.203337 15.3255 0.236873 14.632 0.259405C13.2031 0.314362 11.5373 0.366572 9.74465 0.3946C8.8538 0.406141 7.93107 0.434164 6.98801 0.434164C6.52033 0.43966 6.0466 0.439658 5.57287 0.445703C5.1327 0.452051 4.69446 0.504913 4.26543 0.603421C3.41449 0.808234 2.63268 1.23402 1.999 1.83775C1.38142 2.42624 0.915326 3.15536 0.64047 3.96294C0.386821 4.72479 0.307753 5.53394 0.409109 6.33048C0.448678 6.51679 0.482748 6.70254 0.522317 6.88884C0.561888 7.07515 0.64047 7.22683 0.691031 7.40159C0.719059 7.48622 0.742146 7.57086 0.77567 7.65L0.905368 7.90335C0.990001 8.06162 1.07024 8.21935 1.14773 8.37158C1.89184 9.59437 2.47823 10.6375 2.90085 11.359C3.26412 11.9735 3.4779 12.3735 3.5345 12.4752Z" fill="white"/>
    </g>
    <g style="mix-blend-mode:multiply" opacity="0.35">
      <path d="M8.97986 20.7616C8.97986 20.7676 8.98535 20.7731 8.99085 20.7786H8.98535C8.98535 20.7731 8.97986 20.7676 8.97986 20.7616Z" fill="black"/>
    </g>
    <g style="mix-blend-mode:multiply" opacity="0.35">
      <path d="M24.2847 44.0886L17.3123 33.4627L11.4781 24.5728L9.00891 20.8127C9.00584 20.8096 9.00391 20.8055 9.00342 20.8011C9.11058 20.9479 9.4766 21.4496 10.0476 22.2333C10.7186 23.1857 11.7051 24.5278 12.8328 26.1737C13.9605 27.8197 15.3015 29.7195 16.6886 31.7881C17.0381 32.3069 17.3931 32.8367 17.7537 33.372C18.1142 33.9073 18.4681 34.4376 18.8303 34.9789C19.5518 36.0726 20.285 37.1772 21.0175 38.2879C21.7501 39.3986 22.4662 40.5147 23.1823 41.6139C23.5373 42.1607 23.8868 42.7075 24.2364 43.2488C24.4111 43.5077 24.5749 43.8066 24.7552 44.032L25.0091 44.3875C25.1047 44.4942 25.2118 44.5958 25.3075 44.703C26.101 45.5018 27.1309 46.0238 28.2444 46.1912C29.2568 46.3258 30.2868 46.1715 31.2153 45.7461C31.4297 45.6362 31.627 45.5147 31.8243 45.402C32.01 45.2668 32.1908 45.1371 32.3656 45.0075C32.5233 44.8607 32.6755 44.7145 32.8217 44.5733C32.963 44.4156 33.0927 44.2435 33.2163 44.0941C33.69 43.4571 34.1017 42.8652 34.4397 42.3975C35.0315 41.5858 35.3981 41.067 35.4937 40.9428C35.4869 40.9515 35.4814 40.9611 35.4772 40.9714L33.4306 44.0886C32.9333 44.8476 32.255 45.4708 31.4566 45.9022C30.6583 46.3336 29.7651 46.5594 28.8577 46.5594C27.9503 46.5594 27.0571 46.3336 26.2588 45.9022C25.4605 45.4708 24.782 44.8476 24.2847 44.0886Z" fill="black"/>
    </g>
    <g style="mix-blend-mode:screen" opacity="0.4">
      <path d="M51.5572 16.466C51.5643 16.4576 51.57 16.4482 51.5743 16.438C51.6759 16.2632 51.9914 15.728 52.4761 14.9103C53.085 13.9128 53.9248 12.4696 54.9904 10.7725C55.5092 9.92731 56.1236 8.99684 56.676 8.03289C57.2233 7.04257 57.4272 5.89903 57.2563 4.78057C57.1645 4.19893 56.976 3.63678 56.6985 3.11757C56.4078 2.59029 56.0308 2.11578 55.5823 1.71399C55.4763 1.60747 55.3592 1.51292 55.2328 1.43206C55.1031 1.34193 54.9849 1.25123 54.8552 1.16715C54.5922 1.01381 54.3164 0.883632 54.0308 0.77807C53.8901 0.733006 53.7434 0.665409 53.6027 0.631336L53.1741 0.541204C53.0189 0.504122 52.8599 0.48567 52.7003 0.486243L52.2057 0.452164L48.2488 0.435124C46.9354 0.424133 45.6444 0.412597 44.3876 0.39556C41.8843 0.367532 39.5514 0.294449 37.5438 0.254881C35.5362 0.215312 33.8743 0.125175 32.7015 0.0856057C31.5348 0.0350456 30.8693 0.000976928 30.8693 0.000976928H52.2343C53.2213 0.000616043 54.19 0.267376 55.0377 0.77297C55.8851 1.27856 56.5803 2.00413 57.0491 2.87275C57.5179 3.74136 57.7427 4.72063 57.6998 5.70673C57.6569 6.69277 57.3481 7.64891 56.8062 8.47365L51.6138 16.394C51.6039 16.4101 51.5926 16.4252 51.5798 16.4391C51.5742 16.4495 51.5665 16.4587 51.5572 16.466Z" fill="white"/>
    </g>
  </g>
  <defs>
    <linearGradient id="paint0_linear_1_36241" x1="-361.917" y1="-61.3885" x2="-335.532" y2="-41.5461" gradientUnits="userSpaceOnUse">
      <stop stop-color="#FCC400"/>
      <stop offset="0.162" stop-color="#FBC000"/>
      <stop offset="0.307" stop-color="#FBB500"/>
      <stop offset="0.446" stop-color="#FBA300"/>
      <stop offset="0.581" stop-color="#FA8900"/>
      <stop offset="0.712" stop-color="#FA6800"/>
      <stop offset="0.842" stop-color="#F93F00"/>
      <stop offset="0.967" stop-color="#F81000"/>
      <stop offset="1" stop-color="#F80300"/>
    </linearGradient>
    <linearGradient id="paint1_linear_1_36241" x1="-378.796" y1="-22.855" x2="-346.776" y2="-39.4875" gradientUnits="userSpaceOnUse">
      <stop stop-color="#C33764"/>
      <stop offset="1" stop-color="#1D2671"/>
    </linearGradient>
    <linearGradient id="paint2_linear_1_36241" x1="-368.722" y1="-72.6458" x2="-368.722" y2="-33.8821" gradientUnits="userSpaceOnUse">
      <stop stop-color="#FC7300"/>
      <stop offset="1" stop-color="#F8007A"/>
    </linearGradient>
  </defs>
</svg>
